<svg xmlns="http://www.w3.org/2000/svg" xmlns:xlink="http://www.w3.org/1999/xlink" width="2245" zoomAndPan="magnify" viewBox="0 0 1683.75 1190.250009" height="1587" preserveAspectRatio="xMidYMid meet" version="1.0"><defs><clipPath id="f023cf5d05"><path d="M 0.40625 0 L 1683.09375 0 L 1683.09375 1189.5 L 0.40625 1189.5 Z M 0.40625 0 " clip-rule="nonzero"/></clipPath><clipPath id="44946d7cfc"><path d="M 369.621094 279.132812 L 1314 279.132812 L 1314 794.136719 L 369.621094 794.136719 Z M 369.621094 279.132812 " clip-rule="nonzero"/></clipPath></defs><g clip-path="url(#f023cf5d05)"><path fill="#ffffff" d="M 0.40625 0 L 1683.34375 0 L 1683.34375 1197.171875 L 0.40625 1197.171875 Z M 0.40625 0 " fill-opacity="1" fill-rule="nonzero"/><path fill="#ffffff" d="M 0.40625 0 L 1683.34375 0 L 1683.34375 1189.675781 L 0.40625 1189.675781 Z M 0.40625 0 " fill-opacity="1" fill-rule="nonzero"/><path fill="#ffffff" d="M 0.40625 0 L 1683.34375 0 L 1683.34375 1189.675781 L 0.40625 1189.675781 Z M 0.40625 0 " fill-opacity="1" fill-rule="nonzero"/></g><g clip-path="url(#44946d7cfc)"><path fill="#000000" d="M 382.542969 291.667969 C 390.308594 283.898438 401.035156 279.046875 412.917969 279.046875 C 424.800781 279.046875 435.523438 283.855469 443.289062 291.667969 L 841.894531 690.535156 L 1240.5 291.667969 C 1248.265625 283.898438 1259.03125 279.089844 1270.871094 279.089844 C 1294.59375 279.089844 1313.8125 298.320312 1313.8125 322.050781 C 1313.8125 333.894531 1309.007812 344.667969 1301.242188 352.4375 L 872.265625 781.605469 C 864.5 789.371094 853.777344 794.222656 841.894531 794.222656 C 830.011719 794.222656 819.285156 789.414062 811.523438 781.605469 L 382.542969 352.4375 C 374.78125 344.667969 369.933594 333.9375 369.933594 322.050781 C 369.933594 310.164062 374.738281 299.433594 382.542969 291.667969 Z M 382.542969 291.667969 " fill-opacity="1" fill-rule="nonzero"/></g></svg>