<svg xmlns="http://www.w3.org/2000/svg" xmlns:xlink="http://www.w3.org/1999/xlink" width="2245" zoomAndPan="magnify" viewBox="0 0 1683.75 1190.250009" height="1587" preserveAspectRatio="xMidYMid meet" version="1.0"><defs><clipPath id="78cf3a7750"><path d="M 0.40625 0 L 1683.09375 0 L 1683.09375 1189.5 L 0.40625 1189.5 Z M 0.40625 0 " clip-rule="nonzero"/></clipPath><clipPath id="eac3ebcd92"><path d="M 369.609375 279.355469 L 1314 279.355469 L 1314 794.359375 L 369.609375 794.359375 Z M 369.609375 279.355469 " clip-rule="nonzero"/></clipPath></defs><g clip-path="url(#78cf3a7750)"><path fill="#ffffff" d="M 0.40625 0 L 1683.34375 0 L 1683.34375 1197.171875 L 0.40625 1197.171875 Z M 0.40625 0 " fill-opacity="1" fill-rule="nonzero"/><path fill="#ffffff" d="M 0.40625 0 L 1683.34375 0 L 1683.34375 1189.675781 L 0.40625 1189.675781 Z M 0.40625 0 " fill-opacity="1" fill-rule="nonzero"/><path fill="#ffffff" d="M 0.40625 0 L 1683.34375 0 L 1683.34375 1189.675781 L 0.40625 1189.675781 Z M 0.40625 0 " fill-opacity="1" fill-rule="nonzero"/></g><g clip-path="url(#eac3ebcd92)"><path fill="#000000" d="M 1301.230469 781.828125 C 1293.464844 789.59375 1282.742188 794.445312 1270.859375 794.445312 C 1258.976562 794.445312 1248.253906 789.636719 1240.488281 781.828125 L 841.882812 382.957031 L 443.277344 781.828125 C 435.511719 789.59375 424.746094 794.402344 412.90625 794.402344 C 389.183594 794.402344 369.964844 775.175781 369.964844 751.441406 C 369.964844 739.597656 374.769531 728.824219 382.53125 721.058594 L 811.511719 291.890625 C 819.273438 284.121094 830 279.269531 841.882812 279.269531 C 853.765625 279.269531 864.488281 284.078125 872.253906 291.890625 L 1301.230469 721.058594 C 1308.996094 728.824219 1313.84375 739.554688 1313.84375 751.441406 C 1313.84375 763.332031 1309.039062 774.058594 1301.230469 781.828125 Z M 1301.230469 781.828125 " fill-opacity="1" fill-rule="nonzero"/></g></svg>